<?xml version="1.0" encoding="UTF-8" standalone="no"?>
<svg width="48px" height="39px" viewBox="0 0 48 39" version="1.1" xmlns="http://www.w3.org/2000/svg" xmlns:xlink="http://www.w3.org/1999/xlink">
    <!-- Generator: Sketch 43.2 (39069) - http://www.bohemiancoding.com/sketch -->
    <title>credit-card(1)</title>
    <desc>Created with Sketch.</desc>
    <defs></defs>
    <g id="Symbols" stroke="none" stroke-width="1" fill="none" fill-rule="evenodd">
        <g id="UI/paymentMethod" transform="translate(-88.000000, -65.000000)" fill-rule="nonzero" fill="#0093E0">
            <g id="credit-card(1)" transform="translate(88.000000, 65.000000)">
                <path d="M25.5544229,27.0065227 L38.3315876,27.0065227 C38.8107325,27.0065227 39.1301312,26.6888449 39.1301312,26.2122816 L39.1301312,19.0638329 C39.1301312,18.5872697 38.8107325,18.2695919 38.3315876,18.2695919 L25.5544229,18.2695919 C25.0752781,18.2695919 24.7558794,18.5872697 24.7558794,19.0638329 L24.7558794,26.2122816 C24.7557858,26.6887518 25.0752781,27.0065227 25.5544229,27.0065227 Z M26.3529665,19.858074 L37.5330441,19.858074 L37.5330441,25.4179475 L26.3529665,25.4179475 L26.3529665,19.858074 Z" id="Shape"></path>
                <path d="M3.9929049,16.6809236 L10.381534,16.6809236 C10.8606789,16.6809236 11.1800776,16.3632458 11.1800776,15.8866826 C11.1800776,15.4101193 10.8606789,15.0924415 10.381534,15.0924415 L3.9929049,15.0924415 C3.51376006,15.0924415 3.19436136,15.4101193 3.19436136,15.8866826 C3.19436136,16.3632458 3.51376006,16.6809236 3.9929049,16.6809236 Z" id="Shape"></path>
                <path d="M13.5758018,16.6809236 L19.9644309,16.6809236 C20.4435758,16.6809236 20.7629745,16.3632458 20.7629745,15.8866826 C20.7629745,15.4101193 20.4435758,15.0924415 19.9644309,15.0924415 L13.5758018,15.0924415 C13.096657,15.0924415 12.7772583,15.4101193 12.7772583,15.8866826 C12.7772583,16.3632458 13.096657,16.6809236 13.5758018,16.6809236 Z" id="Shape"></path>
                <path d="M3.9929049,19.858074 L14.3743454,19.858074 C14.8534902,19.858074 15.1728889,19.5403962 15.1728889,19.0638329 C15.1728889,18.5872697 14.8534902,18.2695919 14.3743454,18.2695919 L3.9929049,18.2695919 C3.51376006,18.2695919 3.19436136,18.5872697 3.19436136,19.0638329 C3.19436136,19.5403962 3.51376006,19.858074 3.9929049,19.858074 Z" id="Shape"></path>
                <path d="M19.9643374,18.2694988 L17.5686131,18.2694988 C17.0894683,18.2694988 16.7700696,18.5871766 16.7700696,19.0637399 C16.7700696,19.5403031 17.0894683,19.8579809 17.5686131,19.8579809 L19.9643374,19.8579809 C20.4434822,19.8579809 20.7628809,19.5403031 20.7628809,19.0637399 C20.7628809,18.5871766 20.4434822,18.2694988 19.9643374,18.2694988 Z" id="Shape"></path>
                <path d="M47.1957673,8.42055609 C46.6367961,7.70571122 45.9180789,7.30854415 45.0396154,7.22914797 L43.1230361,6.99812649 L43.1230361,4.76684248 L43.1230361,3.17836038 C43.1230361,1.43099284 41.6856015,0.00130310263 39.9287683,0.00130310263 L3.19426777,0.00130310263 C1.43743454,0.00121002387 0,1.43089976 0,3.17836038 L0,4.76693556 L0,11.1211432 L0,28.5950979 C0,30.0297208 0.969238899,31.2495179 2.28838455,31.6404487 C2.24814387,33.2471742 3.47043114,34.6420525 5.11094074,34.79042 L42.0050938,38.9206038 L42.3244925,38.9206038 C43.9216732,38.9206038 45.3591077,37.7291957 45.5187603,36.2201098 L47.9144845,10.7239761 C47.9943108,9.929642 47.7547384,9.05591169 47.1957673,8.42055609 Z M1.59718068,5.56117661 L41.525949,5.56117661 L41.525949,7.62631504 L41.525949,10.3268091 L1.59718068,10.3268091 L1.59718068,5.56117661 Z M3.19426777,1.5897852 L39.9286747,1.5897852 C40.8071381,1.5897852 41.5258554,2.30463007 41.5258554,3.17836038 L41.5258554,3.97260143 L1.59718068,3.97260143 L1.59718068,3.17836038 C1.59718068,2.30463007 2.31589795,1.5897852 3.19426777,1.5897852 Z M1.59718068,28.5950048 L1.59718068,11.9152912 L41.525949,11.9152912 L41.525949,28.5950048 C41.525949,29.4687351 40.8072317,30.18358 39.9287683,30.18358 L3.27418764,30.18358 L3.19436136,30.18358 C2.31589795,30.18358 1.59718068,29.4687351 1.59718068,28.5950048 Z M46.3173038,10.4062053 L43.9215796,35.9023389 C43.8417533,36.7760692 43.0431162,37.4114248 42.1647464,37.3320286 L5.35041958,33.2018449 C4.55187603,33.1224487 3.99281132,32.487 3.91298504,31.7721551 L39.9286747,31.7721551 C41.6855079,31.7721551 43.1229425,30.3424654 43.1229425,28.5950979 L43.1229425,11.1210501 L43.1229425,8.49995227 L44.9596956,8.65883771 C45.3590142,8.65883771 45.7582391,8.89711933 45.9978116,9.21479714 C46.2374776,9.53247494 46.3972237,10.0090382 46.3173038,10.4062053 Z" id="Shape"></path>
            </g>
        </g>
    </g>
</svg>