<?xml version="1.0" encoding="UTF-8"?>
<svg width="17px" height="15px" viewBox="0 0 17 15" version="1.1" xmlns="http://www.w3.org/2000/svg" xmlns:xlink="http://www.w3.org/1999/xlink">
    <!-- Generator: Sketch 43.1 (39012) - http://www.bohemiancoding.com/sketch -->
    <title>Group</title>
    <desc>Created with Sketch.</desc>
    <defs></defs>
    <g id="Symbols" stroke="none" stroke-width="1" fill="none" fill-rule="evenodd">
        <g id="Window/title" transform="translate(-114.000000, -14.000000)" fill-rule="nonzero">
            <g id="title" transform="translate(0.000000, 12.000000)">
                <g id="firefox-(1)" transform="translate(114.000000, 2.000000)">
                    <g id="Layer_1">
                        <g id="Group">
                            <path d="M8.07326063,0.0146302817 C12.2612577,0.0146302817 15.6419286,3.23619718 15.6419286,7.22709507 C15.6419286,11.217993 12.2612022,14.4395599 8.07326063,14.4395599 C3.88531903,14.4395599 0.504592646,11.217993 0.504592646,7.22709507 C0.504592646,3.23619718 3.88526361,0.0146302817 8.07326063,0.0146302817 Z" id="Shape" fill="#2394BC"></path>
                            <path d="M9.38512392,14.8241725 C13.219895,14.1990845 16.1464658,11.0736972 16.1464658,7.22704225 L16.0960287,7.32322183 C16.1969584,6.60195423 16.1969584,5.92880282 16.0455917,5.39989437 C15.9951546,5.83262324 15.944662,6.07304577 15.8437324,6.16922535 C15.8437324,6.12116197 15.8437324,5.68838028 15.6923657,5.11140845 C15.6419286,4.67867958 15.540999,4.24589789 15.3896323,3.86123239 C15.4400694,4.05353873 15.4400694,4.19783451 15.4400694,4.34207746 C14.8346026,2.85147887 13.4217542,0.976267606 9.83927947,1.02433099 C9.83927947,1.02433099 11.1007057,1.16857394 11.6557354,1.98596831 C11.6557354,1.98596831 11.0502686,1.84172535 10.596113,2.08214789 C11.1511428,2.27445423 11.6557354,2.51487676 12.0593984,2.7552993 L12.1098355,2.7552993 C12.2107651,2.80336268 12.3116393,2.89954225 12.4125689,2.94760563 C13.1694579,3.47651408 13.8758544,4.19778169 13.8253618,5.11135563 C13.623558,4.82286972 13.4216988,4.63051056 13.1189654,4.58244718 C13.4721913,5.88068662 13.4721913,6.93850352 13.219895,7.7559507 C13.0180912,7.17897887 12.8666691,6.89044014 12.7153024,6.74619718 C12.9171062,8.47716549 12.6648653,9.72734155 11.8575392,10.5447359 C12.0089059,10.0638908 12.059343,9.63116197 12.059343,9.29455986 C11.1006502,10.6408627 10.0410278,11.3621303 8.83003875,11.4101937 C8.37593863,11.4101937 7.92178307,11.3621303 7.46768295,11.2178873 C6.86221611,11.025581 6.30713095,10.6889789 5.80259373,10.2081338 C6.5594827,10.2561972 7.31631624,10.1600704 7.9218385,9.82346831 L8.93096837,9.19838028 L8.93096837,9.19838028 C9.08233508,9.1503169 9.18326469,9.1503169 9.3346314,9.19838028 C9.58692772,9.1503169 9.68785734,9.05413732 9.58692772,8.81371479 C9.48599811,8.66947183 9.2841943,8.52522887 9.03189798,8.38098592 C8.52730534,8.14056338 7.97227559,8.18867958 7.41724585,8.52522887 C6.86221611,8.81371479 6.35762347,8.81371479 5.85303082,8.47716549 C5.5502974,8.28485915 5.19707147,7.99632042 4.89433805,7.61165493 L4.79340844,7.41934859 C4.74297134,7.85207746 4.79340844,8.33292254 4.99521224,9.00607394 L4.99521224,9.00607394 L4.99521224,9.00607394 C4.79340844,8.38098592 4.74291592,7.85207746 4.79340844,7.41934859 L4.79340844,7.41934859 C4.79340844,7.08274648 4.94477514,6.84237676 5.24750856,6.84237676 L5.14657895,6.84237676 L5.29794566,6.84237676 C5.65117159,6.89044014 6.00434211,6.93855634 6.45849766,7.0827993 C6.50893475,6.6981338 6.45849766,6.26540493 6.15576424,5.83262324 L6.15576424,5.83262324 C6.55942727,5.44795775 6.91265321,5.20753521 7.21538663,5.06329225 C7.36675333,5.01522887 7.41719043,4.87098592 7.46768295,4.72669014 L7.46768295,4.72669014 L7.46768295,4.72669014 L7.46768295,4.72669014 C7.56861256,4.5343838 7.51812004,4.43820423 7.41724585,4.34202465 C7.11451244,4.34202465 6.86221611,4.34202465 6.5594827,4.29396127 L6.5594827,4.29396127 C6.45855308,4.24589789 6.30718637,4.14971831 6.10538257,4.00547535 L5.65128244,3.57274648 L5.49991574,3.4765669 L5.49991574,3.4765669 L5.49991574,3.4765669 L5.49991574,3.4765669 L5.44947864,3.42850352 L5.49991574,3.38044014 C5.55035283,3.04383803 5.65128244,2.75535211 5.80264915,2.51492958 L5.85308625,2.4668662 C6.00445296,2.22644366 6.30718637,1.98602113 6.71084941,1.69753521 C5.90352334,1.79371479 5.19712689,2.13026408 4.54116754,2.70728873 C4.03657489,2.56304577 3.38061554,2.61110915 2.67421909,2.89959507 L2.57328947,2.94765845 L2.57328947,2.94765845 L2.67421909,2.89959507 L2.67421909,2.89959507 C2.22011896,2.70728873 1.91733012,2.13026408 1.76596341,1.16862676 C1.160552,1.69753521 0.908255678,2.70728873 0.908255678,4.10170775 L0.756888969,4.34213028 L0.706451875,4.39019366 L0.706451875,4.39019366 L0.706451875,4.39019366 L0.706451875,4.39019366 C0.60552226,4.53443662 0.504648071,4.72679577 0.353225937,4.96716549 C0.151422134,5.35183099 0.0504925198,5.6403169 0.0504925198,5.92880282 L0.0504925198,5.92880282 L0.0504925198,5.92880282 L0.0504925198,6.02498239 L0.0504925198,6.02498239 L0.0504925198,6.21728873 L0.504592646,5.88068662 C0.353225937,6.31341549 0.201859229,6.74619718 0.151366709,7.17892606 L0.151366709,7.37123239 L0,7.22709507 C0,8.86193662 0.55502974,10.4005986 1.46328542,11.6507218 L1.51372251,11.6987852 L1.56415961,11.7468486 C2.22011896,12.6123592 3.07788212,13.3335739 4.08706741,13.9105986 C4.79346386,14.2952641 5.55035283,14.58375 6.35767889,14.7761092 L6.5090456,14.8241725 C6.66041231,14.8722359 6.86227154,14.8722359 7.01363825,14.9203521 C7.16500496,14.9203521 7.26593457,14.9684155 7.41730128,14.9684155 L7.56866799,14.9684155 L7.82096431,14.9684155 L8.07326063,14.9684155 L8.27506444,14.9684155 L8.62829037,14.9684155 C8.83009418,14.9684155 9.03195341,14.9203521 9.23375721,14.9203521 C9.23375721,14.8241725 9.38512392,14.8241725 9.38512392,14.8241725 Z M14.4813766,5.44801056 L14.4813766,5.58451056 L14.4813766,5.44801056 L14.4813766,5.44801056 Z" id="Shape" fill="#EC8840"></path>
                        </g>
                    </g>
                </g>
            </g>
        </g>
    </g>
</svg>