<?xml version="1.0" encoding="UTF-8"?>
<svg width="352px" height="244px" viewBox="0 0 352 244" version="1.1" xmlns="http://www.w3.org/2000/svg" xmlns:xlink="http://www.w3.org/1999/xlink">
    <!-- Generator: Sketch 44.1 (41455) - http://www.bohemiancoding.com/sketch -->
    <title>Group 3</title>
    <desc>Created with Sketch.</desc>
    <defs>
        <polygon id="path-1" points="191.279637 178.09434 0.76558541 178.09434 0.76558541 0.0493009434 191.279637 0.0493009434 191.279637 178.09434"></polygon>
        <polygon id="path-3" points="91.8328 1 0.4998 1 0.4998 0.4996 91.8328 0.4996"></polygon>
    </defs>
    <g id="Visual" stroke="none" stroke-width="1" fill="none" fill-rule="evenodd">
        <g id="Tutorial---v1" transform="translate(-477.000000, -133.000000)">
            <g id="Group-2" transform="translate(397.000000, 116.000000)">
                <g id="Group-3" transform="translate(80.000000, 16.000000)">
                    <g id="Page-1">
                        <g id="Group-13" transform="translate(0.000000, 0.872019)">
                            <path d="M218.582316,100.568614 L250.501979,100.568614 C250.501979,100.568614 240.513948,78.2649726 261.717976,75.3813406 C280.628234,72.8079255 288.10272,92.2258028 288.10272,92.2258028 C288.10272,92.2258028 290.34528,81.0228123 301.592216,83.1655481 C312.680188,85.2795009 320.867343,103.100454 320.867343,103.100454 L348.662489,103.100454" id="Fill-1" fill="#F9F9FA"></path>
                            <path d="M219.12834,96.2040425 L251.048002,96.2040425 C251.048002,96.2040425 241.059972,73.901467 262.263999,71.0167689 C281.174258,68.4433538 288.648744,87.8612311 288.648744,87.8612311 C288.648744,87.8612311 290.891303,76.6593066 302.13824,78.8009764 C313.226212,80.9149292 321.413367,97.0973821 321.413367,97.0973821 L349.208513,97.0973821" id="Stroke-3" stroke="#E1E1E6" stroke-linecap="round" stroke-linejoin="round"></path>
                            <path d="M218.577195,102.024075 L350.127514,102.024075" id="Stroke-5" stroke="#F9F9FA" stroke-width="2" stroke-linecap="round" stroke-linejoin="round"></path>
                            <path d="M0.741474164,17.5910085 L18.4931125,17.5910085 C18.4931125,17.5910085 12.937924,5.18765943 24.7289635,3.58327264 C35.2461611,2.15265 39.4026839,12.9505462 39.4026839,12.9505462 C39.4026839,12.9505462 40.6498541,6.72168774 46.9038419,7.91245189 C53.0703465,9.08829151 57.6226778,18.9992443 57.6226778,18.9992443 L73.0805471,18.9992443" id="Fill-7" fill="#F9F9FA"></path>
                            <path d="M1.28792462,14.8650434 L19.038496,14.8650434 C19.038496,14.8650434 13.4843745,2.46169434 25.275414,0.857307547 C35.7926116,-0.572249057 39.9491343,10.2256472 39.9491343,10.2256472 C39.9491343,10.2256472 41.1952377,3.99572264 47.4502924,5.18755283 C53.616797,6.36232642 58.1691283,14.6347792 58.1691283,14.6347792 L73.6269976,14.6347792" id="Stroke-9" stroke="#E1E1E6" stroke-linecap="round" stroke-linejoin="round"></path>
                            <path d="M1.06708267,19.0782377 L74.2244444,19.0782377" id="Stroke-11" stroke="#F9F9FA" stroke-width="2" stroke-linecap="round" stroke-linejoin="round"></path>
                        </g>
                        <g id="Group-71" transform="translate(68.279635, 47.711642)">
                            <path d="M10.9059647,175.647783 C6.6640924,175.647783 3.21490395,172.348396 3.21490395,168.294255 L3.21490395,10.5931604 C3.21490395,6.1275283 6.84866079,2.49660377 11.3177763,2.49660377 L180.727019,2.49660377 C185.191867,2.49660377 188.827758,6.1275283 188.830959,10.5910283 L188.830959,168.294255 C188.830959,172.348396 185.380703,175.647783 181.138831,175.647783 L10.9059647,175.647783 Z" id="Fill-14" fill="#F9F9FA"></path>
                            <g id="Group-18" transform="translate(0.000000, 0.000000)">
                                <mask id="mask-2" fill="white">
                                    <use xlink:href="#path-1"></use>
                                </mask>
                                <g id="Clip-17"></g>
                                <path d="M180.727233,0.0493009434 L11.3169228,0.0493009434 C5.4992845,0.0493009434 0.76558541,4.77931038 0.76558541,10.5934802 L0.76558541,30.4516311 L0.76558541,31.268216 L0.76558541,31.5560462 L0.76558541,168.293508 C0.76558541,173.697254 5.31471611,178.094659 10.9051112,178.094659 L181.140111,178.094659 C186.730506,178.094659 191.279637,173.697254 191.279637,168.293508 L191.279637,31.5560462 L191.279637,31.268216 L191.279637,30.4516311 L191.279637,10.5934802 C191.279637,4.77931038 186.544871,0.0493009434 180.727233,0.0493009434 M180.727233,4.94561226 C183.849959,4.94561226 186.379506,7.47425377 186.379506,10.5934802 L186.379506,30.4516311 L186.379506,31.268216 L186.379506,31.5560462 L186.379506,168.293508 C186.379506,171.00231 184.034528,173.198348 181.140111,173.198348 L10.9051112,173.198348 C8.01069483,173.198348 5.66464924,171.00231 5.66464924,168.293508 L5.66464924,31.5560462 L5.66464924,31.268216 L5.66464924,30.4516311 L5.66464924,10.5934802 C5.66464924,7.47425377 8.19526322,4.94561226 11.3169228,4.94561226 L180.727233,4.94561226" id="Fill-16" fill="#DCDCE0" mask="url(#mask-2)"></path>
                            </g>
                            <path d="M10.7241702,31.5561528 L10.7241702,164.799143 C10.7241702,167.531398 11.3130821,168.123049 14.0453343,168.123049 L177.999675,168.123049 C180.731927,168.123049 181.320839,167.531398 181.320839,164.799143 L181.320839,31.5561528 L10.7241702,31.5561528 Z" id="Fill-19" fill="#FFFFFF"></path>
                            <path d="M20.456152,14.3595783 C22.5642857,14.3595783 24.2734103,16.0673708 24.2734103,18.1738613 C24.2734103,20.2803519 22.5642857,21.9870783 20.456152,21.9870783 C18.3480182,21.9870783 16.6388936,20.2803519 16.6388936,18.1738613 C16.6388936,16.0673708 18.3480182,14.3595783 20.456152,14.3595783" id="Fill-21" fill="#DCDCE0"></path>
                            <path d="M32.767397,14.3595783 C34.8755307,14.3595783 36.5846553,16.0673708 36.5846553,18.1738613 C36.5846553,20.2803519 34.8755307,21.9870783 32.767397,21.9870783 C30.6592632,21.9870783 28.9501386,20.2803519 28.9501386,18.1738613 C28.9501386,16.0673708 30.6592632,14.3595783 32.767397,14.3595783" id="Fill-23" fill="#DCDCE0"></path>
                            <path d="M138.590056,22.486517 L53.453886,22.486517 C51.1729195,22.486517 49.3219012,20.6380075 49.3219012,18.3577528 L49.3219012,17.9889038 C49.3219012,15.7097151 51.1729195,13.8612057 53.453886,13.8612057 L138.590056,13.8612057 C140.873157,13.8612057 142.722041,15.7097151 142.722041,17.9889038 L142.722041,18.3577528 C142.722041,20.6380075 140.873157,22.486517 138.590056,22.486517" id="Fill-25" fill="#DCDCE0"></path>
                            <path d="M159.277292,14.3595783 C161.385426,14.3595783 163.093484,16.0673708 163.093484,18.1738613 C163.093484,20.2803519 161.385426,21.9870783 159.277292,21.9870783 C157.169158,21.9870783 155.460034,20.2803519 155.460034,18.1738613 C155.460034,16.0673708 157.169158,14.3595783 159.277292,14.3595783" id="Fill-27" fill="#DCDCE0"></path>
                            <path d="M171.589071,14.3595783 C173.697204,14.3595783 175.405262,16.0673708 175.405262,18.1738613 C175.405262,20.2803519 173.697204,21.9870783 171.589071,21.9870783 C169.47987,21.9870783 167.771812,20.2803519 167.771812,18.1738613 C167.771812,16.0673708 169.47987,14.3595783 171.589071,14.3595783" id="Fill-29" fill="#DCDCE0"></path>
                            <path d="M96.3684903,107.321907 C96.0729675,107.321907 95.7763778,107.216369 95.5405997,106.998897 C95.0423717,106.542633 95.0082319,105.767624 95.464852,105.27085 L103.886718,96.0911991 C104.344405,95.5933594 105.117885,95.5549821 105.618247,96.0165764 C106.116475,96.4728406 106.149548,97.24785 105.692928,97.7456896 L97.2721286,106.924275 C97.0299492,107.187586 96.7002866,107.321907 96.3684903,107.321907" id="Fill-31" fill="#F9F9FA"></path>
                            <path d="M86.4160933,101.50763 C86.0896313,101.50763 85.7642362,101.37864 85.5241906,101.122791 C85.0601024,100.628149 85.0846404,99.8531396 85.577534,99.3926113 C85.6276769,99.3446396 90.6067559,94.6636679 92.981607,91.8450642 C95.0182605,89.4283566 94.7014003,86.8730642 94.6971328,86.8496113 C94.5968471,86.1801396 95.0588015,85.5586396 95.7277286,85.457366 C96.4201267,85.3496962 97.021841,85.8187528 97.1210599,86.4860925 C97.1423973,86.6332057 97.6310234,90.1308755 94.8550295,93.4228 C92.3873608,96.3512057 87.4626921,100.978875 87.2546526,101.175026 C87.0178076,101.397828 86.7180173,101.50763 86.4160933,101.50763" id="Fill-33" fill="#F9F9FA"></path>
                            <path d="M94.5321948,84.0637349 C94.5140581,84.0637349 94.498055,84.0637349 94.4799182,84.0616028 C93.8056568,84.0349519 93.2807571,83.4688858 93.3074289,82.7972821 C93.3106295,82.7034708 93.7768514,73.5099613 104.024131,73.5099613 C104.701593,73.5099613 105.248897,74.0568387 105.248897,74.7337726 C105.248897,75.4096406 104.701593,75.957584 104.024131,75.957584 C96.1666386,75.957584 95.7676295,82.6107255 95.7548271,82.8921594 C95.7249547,83.5499047 95.1829851,84.0637349 94.5321948,84.0637349" id="Fill-35" fill="#F9F9FA"></path>
                            <path d="M83.6598365,81.4652679 C83.1466723,81.4652679 82.6697818,81.1401264 82.4990827,80.6284283 C82.1246116,79.5048245 84.985955,69.4286358 93.6457331,64.7817774 C94.2442468,64.4640981 94.9846541,64.685834 95.303648,65.280683 C95.6247757,65.8765981 95.4007331,66.6174943 94.8043532,66.9383717 C87.4994991,70.8581925 85.035031,78.9312962 84.8824687,80.1625698 C84.9187422,80.7030509 84.5869459,81.2232774 84.04711,81.4034377 C83.9180188,81.4460792 83.7878608,81.4652679 83.6598365,81.4652679" id="Fill-37" fill="#F9F9FA"></path>
                            <path d="M91.6113201,56.8329736 C90.9925359,56.8329736 90.461235,56.3671151 90.3940222,55.7381528 C90.3225419,55.0665491 90.8101012,54.4642377 91.4822289,54.3917472 C92.8776939,54.2435679 94.2966301,54.1657472 95.7006301,54.160417 L95.7027638,54.160417 C96.379159,54.160417 96.9275298,54.7051623 96.9296635,55.3799642 C96.9317973,56.0558321 96.3855602,56.6059075 95.709165,56.6080396 C94.3894477,56.6133698 93.0537274,56.6869264 91.742545,56.8255113 C91.6988033,56.8308415 91.6539948,56.8329736 91.6113201,56.8329736 L91.6113201,56.8329736 Z M69.5335267,66.7322 C69.2006635,66.7322 68.8678003,66.5957472 68.6266878,66.3303038 C68.1711347,65.8282 68.2095419,65.0542566 68.7120374,64.6022566 C72.9443079,60.7698509 77.8284356,57.9331245 83.2278611,56.1613698 C83.873317,55.9534925 84.5646483,56.3020868 84.7737547,56.9427755 C84.983928,57.5866623 84.6339948,58.2763887 83.9906726,58.4895962 C78.9198429,60.1515491 74.3323049,62.8166434 70.356083,66.4145208 C70.1213717,66.6277283 69.8269158,66.7322 69.5335267,66.7322 L69.5335267,66.7322 Z M124.846433,69.4548604 C124.514636,69.4548604 124.181773,69.3184075 123.94066,69.0529642 C119.458743,64.1172094 113.750992,60.4383132 107.438326,58.4149736 C106.793937,58.2081623 106.43867,57.5195019 106.646709,56.8766811 C106.853682,56.2306623 107.542879,55.8810019 108.187268,56.082483 C114.908545,58.2390774 120.982232,62.154634 125.753271,67.409134 C126.208825,67.9091057 126.171484,68.6830491 125.670056,69.1371811 C125.435344,69.3503887 125.140888,69.4548604 124.846433,69.4548604 L124.846433,69.4548604 Z M56.8633869,99.9275491 C56.2446027,99.9275491 55.7133018,99.4616906 55.6471559,98.8327283 C55.4956605,97.4148981 55.4209796,95.9682849 55.4209796,94.5323321 C55.4209796,88.8450208 56.5806666,83.3495962 58.8669675,78.1953038 C59.1411529,77.5759358 59.866624,77.296634 60.4832745,77.5716717 C61.1020587,77.8456434 61.3805116,78.568417 61.1063261,79.1845868 C58.9597851,84.0254642 57.8715784,89.1893509 57.8715784,94.5323321 C57.8715784,95.8830019 57.9419918,97.243266 58.0828185,98.5747472 C58.1542988,99.2463509 57.6667395,99.8486623 56.993545,99.9200868 C56.9498033,99.925417 56.9071286,99.9275491 56.8633869,99.9275491 L56.8633869,99.9275491 Z M131.629588,111.675285 C131.463156,111.675285 131.293524,111.641172 131.13136,111.569747 C130.514709,111.294709 130.235189,110.57087 130.512575,109.953634 C132.680454,105.089304 133.779329,99.898766 133.779329,94.5323321 C133.779329,90.4781906 133.144542,86.4858792 131.886703,82.6705302 C131.67653,82.0266434 132.025396,81.3358509 132.667651,81.1258415 C133.307773,80.9062377 134.001238,81.2622943 134.214612,81.9051151 C135.552466,85.969917 136.229928,90.2170113 136.229928,94.5323321 C136.229928,100.245228 135.059572,105.767304 132.7498,110.948247 C132.547095,111.404511 132.097943,111.675285 131.629588,111.675285 L131.629588,111.675285 Z M61.923548,115.392558 C61.5010678,115.392558 61.09139,115.175087 60.8641468,114.782785 C60.1610799,113.57603 59.5124234,112.310643 58.9352471,111.023936 C58.6578611,110.407766 58.9341802,109.686058 59.5518976,109.408889 C60.1696149,109.126389 60.8940191,109.408889 61.1703383,110.025058 C61.7123079,111.229681 62.3204234,112.418313 62.9808155,113.553643 C63.3222137,114.136766 63.123776,114.887257 62.5391316,115.227323 C62.3449614,115.339257 62.1326544,115.392558 61.923548,115.392558 L61.923548,115.392558 Z M124.953119,121.940162 C124.660797,121.940162 124.367408,121.837823 124.133764,121.624615 C123.630202,121.172615 123.590727,120.397606 124.042013,119.896568 C124.927515,118.915813 125.768208,117.878558 126.542755,116.814653 C126.93963,116.264577 127.703509,116.145181 128.254013,116.544945 C128.801317,116.941511 128.92294,117.706926 128.523931,118.253804 C127.699241,119.387002 126.805205,120.491417 125.863159,121.536134 C125.622047,121.803709 125.288116,121.940162 124.953119,121.940162 L124.953119,121.940162 Z M79.931235,131.549426 C79.7658702,131.549426 79.596238,131.516379 79.4351407,131.444955 C74.2426878,129.140181 69.6690191,125.824804 65.8400252,121.5937 C65.3866058,121.093728 65.4260799,120.318719 65.9275085,119.864587 C66.4289371,119.415785 67.2034842,119.448832 67.6579705,119.953068 C71.2554538,123.928323 75.5517365,127.041153 80.4305298,129.207342 C81.049314,129.482379 81.3256331,130.204087 81.0525146,130.823455 C80.8487426,131.279719 80.4017243,131.549426 79.931235,131.549426 L79.931235,131.549426 Z M95.8659948,134.908511 C95.1895997,134.908511 94.6422957,134.361634 94.6412289,133.686832 C94.640162,133.009898 95.1885328,132.460889 95.864928,132.460889 C102.537129,132.451294 109.094107,130.692332 114.826396,127.371625 C115.415308,127.034757 116.162116,127.23304 116.500314,127.816162 C116.839578,128.401417 116.641141,129.149775 116.055429,129.489842 C109.949736,133.024823 102.970278,134.898917 95.8670617,134.908511 L95.8659948,134.908511 Z" id="Fill-39" fill="#F3F3F8"></path>
                            <path d="M95.8256672,44.997183 C68.4903419,44.997183 46.2525182,67.2176736 46.2525182,94.5316925 C46.2525182,121.846777 68.4903419,144.067268 95.8256672,144.067268 C123.159926,144.067268 145.397749,121.846777 145.397749,94.5316925 C145.397749,67.2176736 123.159926,44.997183 95.8256672,44.997183 M95.8256672,148.962513 C65.7890289,148.962513 41.3523875,124.545985 41.3523875,94.5316925 C41.3523875,64.518466 65.7890289,40.1019377 95.8256672,40.1019377 C125.861239,40.1019377 150.29788,64.518466 150.29788,94.5316925 C150.29788,124.545985 125.861239,148.962513 95.8256672,148.962513" id="Fill-41" fill="#F3F3F8"></path>
                            <path d="M69.3711492,37.7847981 C68.9059942,37.7847981 68.4621766,37.5193547 68.2562708,37.0705528 C67.9746173,36.4554491 68.2456021,35.7294774 68.8611857,35.4469774 C69.6933438,35.0674679 70.5351036,34.7060811 71.3853985,34.3596189 C72.0063164,34.1059019 72.7264532,34.4043925 72.981435,35.0312226 C73.2374836,35.6569868 72.9355596,36.370166 72.3093073,36.6260151 C71.4920854,36.9575528 70.6812647,37.3093453 69.878979,37.6749962 C69.7146812,37.7485528 69.5407815,37.7847981 69.3711492,37.7847981 M126.69297,40.0106849 C126.492398,40.0106849 126.288626,39.9605811 126.098724,39.8571755 C116.891642,34.7540528 106.42352,32.0569774 95.8252404,32.0569774 C95.1488453,32.0569774 94.482052,31.5101 94.482052,30.8352981 C94.482052,30.1594302 94.9130672,29.6114868 95.5894623,29.6114868 L95.5894623,30.8352981 L95.7879,29.6093547 C106.838532,29.6093547 117.717398,32.413034 127.288283,37.7155057 C127.879329,38.0427792 128.093769,38.7890057 127.764107,39.3795906 C127.541131,39.7836189 127.122918,40.0106849 126.69297,40.0106849 M53.5633468,48.0667321 C53.2262161,48.0667321 52.8880185,47.9281472 52.6469061,47.6552415 C52.198821,47.1488736 52.2446964,46.3749302 52.7503924,45.9271943 C54.8126508,44.1010717 57.006134,42.3943453 59.2721644,40.8539208 C59.831204,40.4722792 60.5908149,40.6183264 60.973821,41.1769302 C61.3536264,41.7366 61.2095991,42.4966849 60.6494927,42.8772604 C58.4698787,44.3590528 56.3585444,46.001817 54.3752343,47.7586472 C54.1426568,47.9665245 53.8524684,48.0667321 53.5633468,48.0667321 M148.495511,59.8549774 C148.102903,59.8549774 147.719897,59.6684208 147.481985,59.3219585 C145.991569,57.1419113 144.344322,55.0354208 142.587189,53.0579208 C142.138037,52.5536849 142.183912,51.7786755 142.689608,51.3298736 C143.194237,50.8832038 143.968784,50.9258453 144.417936,51.4322132 C146.244417,53.4864679 147.955675,55.6761094 149.504769,57.9393075 C149.886709,58.4989774 149.742681,59.2601283 149.184709,59.6417698 C148.973468,59.7856849 148.732356,59.8549774 148.495511,59.8549774 M154.882857,71.7285057 C154.399566,71.7285057 153.940812,71.4396094 153.746642,70.9641566 C153.414845,70.1454396 153.064912,69.3384491 152.696842,68.5399868 C152.414122,67.924883 152.685107,67.1989113 153.299623,66.9164113 C153.91414,66.6339113 154.640678,66.9046849 154.924465,67.5165906 C155.305338,68.3481 155.670207,69.1892038 156.01694,70.0452321 C156.271921,70.6720623 155.96893,71.3841755 155.342678,71.6378925 C155.19225,71.6997226 155.036487,71.7285057 154.882857,71.7285057 M32.0755322,95.834817 C31.400204,95.834817 30.8518331,95.3668264 30.8518331,94.6898925 L32.0765991,94.6898925 L30.8507663,94.5609019 C30.8507663,83.5018264 33.669435,72.6058547 39.0016477,63.0221755 C39.3291766,62.4315906 40.0749182,62.218383 40.6680976,62.5488547 C41.2591432,62.8761283 41.472517,63.6223547 41.1428544,64.2129396 C36.0122799,73.4331 33.3002982,83.9175811 33.3002982,94.5321189 C33.3002982,95.2090528 32.7529942,95.834817 32.0755322,95.834817 M37.7758149,122.121175 C37.309593,122.121175 36.8636416,121.855732 36.6598696,121.403732 C36.2800641,120.570091 35.9183954,119.731119 35.5737967,118.877223 C35.3198818,118.251458 35.6228726,117.537213 36.2491249,117.283496 C36.8796447,117.031911 37.5912465,117.3336 37.8440945,117.959364 C38.1758909,118.780213 38.5247571,119.590402 38.8896264,120.390996 C39.1691462,121.005034 38.8981614,121.732072 38.2815109,122.011374 C38.1172131,122.085996 37.9443802,122.121175 37.7758149,122.121175 M151.500882,126.807477 C151.298177,126.807477 151.092271,126.756308 150.903435,126.651836 C150.314523,126.321364 150.102216,125.576204 150.432946,124.985619 C155.611529,115.731345 158.350183,105.201025 158.350183,94.5321189 L158.349116,94.2187038 C158.349116,93.5428358 158.897487,92.9948925 159.573882,92.9948925 C160.251344,92.9948925 160.799715,93.5428358 160.799715,94.2187038 L160.800781,94.5182604 C160.800781,105.619977 157.954374,116.562855 152.572019,126.180647 C152.346909,126.582543 151.929763,126.807477 151.500882,126.807477 M48.0444319,137.927317 C47.7051675,137.927317 47.3680368,137.789798 47.1258574,137.51476 C45.3047116,135.454109 43.5987875,133.262336 42.0550277,130.992742 C41.6752222,130.434138 41.8213833,129.672987 42.3804228,129.293477 C42.941596,128.912902 43.701207,129.056817 44.0820793,129.616487 C45.5671614,131.798666 47.2090733,133.911553 48.9619395,135.893317 C49.4100246,136.400751 49.3620155,137.172562 48.8552526,137.62243 C48.6216082,137.828175 48.3324866,137.927317 48.0444319,137.927317 M131.561095,148.51627 C131.168487,148.51627 130.78228,148.326515 130.545435,147.977921 C130.166696,147.418251 130.312857,146.658166 130.872964,146.277591 C133.055778,144.801128 135.170313,143.163694 137.160025,141.411128 C137.665721,140.966591 138.442402,141.013496 138.888353,141.518798 C139.335371,142.025166 139.286295,142.800175 138.778465,143.246845 C136.71194,145.068704 134.514189,146.7701 132.246025,148.305194 C132.035851,148.446977 131.79794,148.51627 131.561095,148.51627 M119.6559,154.858128 C119.171541,154.858128 118.712788,154.568166 118.519684,154.092713 C118.267903,153.464817 118.570894,152.751638 119.198213,152.497921 C120.018636,152.168515 120.828389,151.822053 121.631742,151.458534 C122.247326,151.181364 122.972797,151.453204 123.253383,152.068308 C123.531836,152.682345 123.258718,153.409383 122.643134,153.686553 C121.809909,154.06393 120.966016,154.425317 120.114654,154.769647 C119.964225,154.829345 119.809529,154.858128 119.6559,154.858128 M95.9041888,159.460213 C95.8593802,159.462345 95.7324228,159.457015 95.6854805,159.452751 C84.7394015,159.452751 73.822128,156.624553 64.2213711,151.274109 C63.6303255,150.944704 63.4190854,150.201675 63.748748,149.610025 C64.0784106,149.017308 64.8241523,148.807298 65.4151979,149.13777 C74.6596204,154.286732 85.1757511,157.009392 95.8252404,157.009392 C96.5027024,157.009392 97.0894805,157.559468 97.0894805,158.233204 C97.0894805,158.910138 96.5816508,159.460213 95.9041888,159.460213" id="Fill-43" fill="#F3F3F8"></path>
                            <path d="M29.5751106,52.9144321 C28.7877611,52.9144321 28.102831,52.376083 27.9097277,51.6032057 C27.4477733,49.7824132 26.0245696,48.3603189 24.1980894,47.8987245 C23.4299435,47.7068377 22.8911745,47.0224415 22.8911745,46.2357057 C22.8911745,45.4500358 23.4299435,44.7656396 24.2034237,44.5737528 C26.0245696,44.1121585 27.4488401,42.6900642 27.9097277,40.8650075 C28.102831,40.0974604 28.7877611,39.5580453 29.5751106,39.5580453 C30.3613933,39.5580453 31.0452565,40.0974604 31.2383599,40.8692717 C31.7003143,42.6900642 33.1235179,44.1110925 34.9499982,44.5737528 C35.7181441,44.7656396 36.2579799,45.4500358 36.2579799,46.2357057 C36.2579799,47.0224415 35.7181441,47.7068377 34.9457307,47.8987245 C33.1235179,48.3613849 31.7013812,49.7824132 31.2383599,51.6074698 C31.0452565,52.376083 30.3613933,52.9144321 29.5751106,52.9144321" id="Fill-45" fill="#59ACFF"></path>
                            <path d="M29.5745772,38.0549321 C28.0958964,38.0549321 26.8113857,39.0623377 26.4507839,40.5036208 C26.1253888,41.7860642 25.119331,42.7902717 23.8284191,43.1175453 C22.3945468,43.475734 21.3863553,44.7603094 21.3863553,46.2367717 C21.3863553,47.7143 22.3945468,48.9978094 23.8369541,49.3581302 C25.119331,49.6822057 26.1253888,50.6874792 26.4529176,51.9784509 C26.8113857,53.4112057 28.0958964,54.4186113 29.5745772,54.4186113 C31.0532581,54.4186113 32.3377687,53.4112057 32.6983705,51.9699226 C33.0237657,50.6874792 34.0287565,49.6822057 35.3207353,49.3559981 C36.7546076,48.9978094 37.7627991,47.7143 37.7627991,46.2367717 C37.7627991,44.7603094 36.7546076,43.475734 35.3122003,43.1154132 C34.0287565,42.7902717 33.0237657,41.7860642 32.6962368,40.4950925 C32.3377687,39.0623377 31.0532581,38.0549321 29.5745772,38.0549321 M29.5745772,41.0611585 C29.6631274,41.0611585 29.7506106,41.1197906 29.7794161,41.2338566 C30.375796,43.5876679 32.2246805,45.4351113 34.5813948,46.0320925 C34.8107717,46.0896585 34.8107717,46.3838849 34.5813948,46.4414509 C32.2246805,47.037366 30.375796,48.8858755 29.7794161,51.2396868 C29.7506106,51.3548189 29.6631274,51.4113189 29.5745772,51.4113189 C29.4860271,51.4113189 29.3985438,51.3548189 29.3697383,51.2396868 C28.7733584,48.8858755 26.923407,47.037366 24.5677596,46.4414509 C24.3383827,46.3838849 24.3383827,46.0896585 24.5677596,46.0320925 C26.923407,45.4351113 28.7733584,43.5876679 29.3697383,41.2338566 C29.3985438,41.1197906 29.4860271,41.0611585 29.5745772,41.0611585" id="Fill-47" fill="#FFFFFF"></path>
                            <path d="M42.3983462,66.760983 C41.5491182,66.760983 40.800176,66.1767943 40.5804009,65.3399547 C39.6522246,61.6930396 36.8175529,58.8605774 33.1805954,57.9363226 C32.3537717,57.7359075 31.7552581,56.9992755 31.7456562,56.1453792 C31.7349875,55.2882849 32.318565,54.5324642 33.1613918,54.3075302 C36.8260878,53.3875396 39.6596927,50.5614736 40.5761334,46.9241528 C40.7831061,46.081983 41.5309815,45.487134 42.391945,45.487134 C43.2518416,45.487134 43.9815802,46.0563981 44.2088234,46.9028321 C45.1369997,50.5561434 47.9716714,53.3886057 51.6096957,54.3107283 C52.4514556,54.5175396 53.0467687,55.2669642 53.044635,56.1283226 C53.0435681,56.9886151 52.4450544,57.7348415 51.5936927,57.9405868 C47.9716714,58.8605774 45.1369997,61.6930396 44.2141578,65.3271623 C44.0071851,66.166134 43.2593097,66.760983 42.3983462,66.760983" id="Fill-49" fill="#99CCFF"></path>
                            <path d="M42.3916249,43.9837009 C40.8350626,43.9837009 39.4854729,45.0497387 39.1120687,46.5763047 C38.3353878,49.6550217 35.9221295,52.064267 32.8164729,52.8446066 C31.2695125,53.2539651 30.2261143,54.6120972 30.2410505,56.1557198 C30.2559866,57.6961443 31.3228559,59.0308236 32.8346097,59.3996726 C35.9125277,60.1810783 38.3300535,62.5967198 39.1184699,65.6978236 C39.5228134,67.2211915 40.8681356,68.2648425 42.3980261,68.2648425 C43.9556553,68.2648425 45.3041781,67.1977387 45.6775824,65.6711726 C46.4595976,62.5967198 48.8771234,60.1810783 51.9795793,59.3943425 C53.4817313,59.0265594 54.5486006,57.6801538 54.5486006,56.1237387 C54.5486006,54.5683896 53.4817313,53.221984 51.9539745,52.8478047 C48.8771234,52.0674651 46.4595976,49.6518236 45.6711812,46.5507198 C45.2668377,45.0273519 43.9215155,43.9837009 42.3916249,43.9837009 M42.3916249,46.9909934 C42.546321,46.9909934 42.7020839,47.0912009 42.7543605,47.291616 C43.8105611,51.443833 47.0826492,54.7133708 51.2381052,55.7687481 C51.639248,55.8668236 51.639248,56.3817198 51.2381052,56.4797953 C47.0826492,57.5341066 43.8105611,60.8047104 42.7543605,64.9569274 C42.7052845,65.1573425 42.5516553,65.25755 42.3980261,65.25755 C42.2433301,65.25755 42.0875672,65.1573425 42.0352906,64.9569274 C40.97909,60.8047104 37.7070018,57.5341066 33.550479,56.4797953 C33.1493362,56.3817198 33.1493362,55.8668236 33.550479,55.7602198 C37.7144699,54.7133708 40.9876249,51.443833 42.0352906,47.291616 C42.0832997,47.0912009 42.2369289,46.9909934 42.3916249,46.9909934" id="Fill-51" fill="#FFFFFF"></path>
                            <path d="M23.8329,84.3854651 C22.8897875,84.3854651 22.069365,83.731984 21.8389213,82.7949368 C20.3901128,77.0958991 15.9455353,72.6537198 10.2409851,71.2145689 C9.28507021,70.965116 8.65241672,70.1581255 8.65881793,69.2061538 C8.66308541,68.2563142 9.30214012,67.459984 10.2473863,67.2254557 C15.9540702,65.7777764 20.4007815,61.3377292 21.8399881,55.6365594 C22.0885687,54.6856538 22.8908544,54.0556255 23.8382343,54.0556255 C24.7802799,54.0556255 25.6007024,54.7091066 25.8311462,55.6450877 C27.2799547,61.3451915 31.7245322,65.7873708 37.4290824,67.2265217 C38.3679274,67.459984 39.0069821,68.2563142 39.0133833,69.2061538 C39.0187176,70.1581255 38.387131,70.965116 37.4386842,71.2113708 C31.7159973,72.6633142 27.269286,77.1044274 25.8300793,82.8045311 C25.5846994,83.7543708 24.7824137,84.3854651 23.8329,84.3854651" id="Fill-53" fill="#59ACFF"></path>
                            <path d="M23.8385544,52.5511264 C22.2201137,52.5511264 20.8001106,53.6608717 20.3872322,55.2482019 C19.0760498,60.4334094 15.0475514,64.4566358 9.86896778,65.7710604 C8.28893435,66.1601642 7.16338723,67.569466 7.15271854,69.1941075 C7.14204985,70.8230132 8.25266079,72.2504377 9.85296474,72.6661925 C15.0400833,73.9763528 19.0675149,78.0006453 20.3829647,83.1762585 C20.7745058,84.7657208 22.1945088,85.8893245 23.8321532,85.8893245 C25.4505939,85.8893245 26.8695301,84.7806453 27.2834754,83.1933151 C28.5946578,78.0081075 32.6220894,73.9838151 37.8006729,72.6704566 C39.4180468,72.2504377 40.5286578,70.8230132 40.5179891,69.1941075 C40.5073204,67.569466 39.3807064,66.1601642 37.7804024,65.7657302 C32.6295574,64.4651642 28.6031927,60.4398057 27.2877429,55.2652585 C26.895135,53.6757962 25.4751319,52.5511264 23.8385544,52.5511264 M23.8385544,55.5584189 C24.0679313,55.5584189 24.2973082,55.7076642 24.3709222,56.0061547 C25.9498888,62.2190226 30.8425514,67.115334 37.0602657,68.6856075 C37.6577125,68.8316547 37.6577125,69.601334 37.0602657,69.7559094 C30.8425514,71.3336453 25.9424207,76.2224943 24.3709222,82.4353623 C24.2930407,82.7338528 24.062597,82.8830981 23.8321532,82.8830981 C23.6017094,82.8830981 23.3723325,82.7338528 23.2997854,82.4353623 C21.7208188,76.2224943 16.8281562,71.325117 10.6104419,69.7559094 C10.0129951,69.601334 10.0129951,68.8316547 10.6104419,68.6856075 C16.8281562,67.1078717 21.7282869,62.2190226 23.2997854,56.0061547 C23.3766,55.7076642 23.6081106,55.5584189 23.8385544,55.5584189" id="Fill-55" fill="#FFFFFF"></path>
                            <path d="M133.04735,123.093295 L57.4809976,123.093295 C54.8682347,123.093295 52.7302286,120.956956 52.7302286,118.346229 L52.7302286,73.4116726 C52.7302286,70.8009462 54.8682347,68.6646066 57.4809976,68.6646066 L133.04735,68.6646066 C135.659046,68.6646066 137.797052,70.8009462 137.797052,73.4116726 L137.797052,118.346229 C137.797052,120.956956 135.659046,123.093295 133.04735,123.093295" id="Fill-57" fill="#FFFFFF"></path>
                            <path d="M153.282447,94.5320123 L136.923073,94.5320123 C136.061043,94.5320123 135.355842,93.8273613 135.355842,92.9660028 C135.355842,92.1046443 136.061043,91.3999934 136.923073,91.3999934 L153.282447,91.3999934 C154.145544,91.3999934 154.850745,92.1046443 154.850745,92.9660028 C154.850745,93.8273613 154.145544,94.5320123 153.282447,94.5320123" id="Fill-59" fill="#99CCFF"></path>
                            <path d="M153.282447,94.5320123 L136.923073,94.5320123 C136.061043,94.5320123 135.355842,93.8273613 135.355842,92.9660028 C135.355842,92.1046443 136.061043,91.3999934 136.923073,91.3999934 L153.282447,91.3999934 C154.145544,91.3999934 154.850745,92.1046443 154.850745,92.9660028 C154.850745,93.8273613 154.145544,94.5320123 153.282447,94.5320123 Z" id="Stroke-61" stroke="#FFFFFF"></path>
                            <path d="M173.314412,103.07332 L114.078627,103.07332 C113.21553,103.07332 112.510329,102.368669 112.510329,101.50731 C112.510329,100.645952 113.21553,99.9413009 114.078627,99.9413009 L173.314412,99.9413009 C174.176442,99.9413009 174.881643,100.645952 174.881643,101.50731 C174.881643,102.368669 174.176442,103.07332 173.314412,103.07332" id="Fill-63" fill="#99CCFF"></path>
                            <path d="M173.314412,103.07332 L114.078627,103.07332 C113.21553,103.07332 112.510329,102.368669 112.510329,101.50731 C112.510329,100.645952 113.21553,99.9413009 114.078627,99.9413009 L173.314412,99.9413009 C174.176442,99.9413009 174.881643,100.645952 174.881643,101.50731 C174.881643,102.368669 174.176442,103.07332 173.314412,103.07332 Z" id="Stroke-65" stroke="#FFFFFF"></path>
                            <path d="M152.462451,111.213904 L116.754336,111.213904 C115.893372,111.213904 115.188171,110.509253 115.188171,109.647894 L115.188171,109.546621 C115.188171,108.684196 115.893372,107.979545 116.754336,107.979545 L152.462451,107.979545 C153.325548,107.979545 154.030749,108.684196 154.030749,109.546621 L154.030749,109.647894 C154.030749,110.509253 153.325548,111.213904 152.462451,111.213904" id="Fill-67" fill="#99CCFF"></path>
                            <path d="M152.462451,111.213904 L116.754336,111.213904 C115.893372,111.213904 115.188171,110.509253 115.188171,109.647894 L115.188171,109.546621 C115.188171,108.684196 115.893372,107.979545 116.754336,107.979545 L152.462451,107.979545 C153.325548,107.979545 154.030749,108.684196 154.030749,109.546621 L154.030749,109.647894 C154.030749,110.509253 153.325548,111.213904 152.462451,111.213904 Z" id="Stroke-69" stroke="#FFFFFF"></path>
                        </g>
                        <g transform="translate(227.000000, 180.000000)">
                            <path d="M15.4857,5.2236 L76.1737,5.2236" id="Stroke-1" stroke="#E1E1E6" stroke-width="2" stroke-linecap="round" stroke-linejoin="round"></path>
                            <g id="Group-7" transform="translate(0.000000, 0.446700)">
                                <path d="M41.0662,0.0533 L67.9362,0.0533" id="Stroke-2" stroke="#E1E1E6" stroke-linecap="round" stroke-linejoin="round"></path>
                                <g id="Group-6" transform="translate(0.000000, 9.000000)">
                                    <mask id="mask-4" fill="white">
                                        <use xlink:href="#path-3"></use>
                                    </mask>
                                    <g id="Clip-5"></g>
                                    <path d="M0.4998,0.4996 L91.8328,0.4996" id="Stroke-4" stroke="#E1E1E6" stroke-linecap="round" stroke-linejoin="round" mask="url(#mask-4)"></path>
                                </g>
                            </g>
                        </g>
                        <g id="Group-88" transform="translate(123.756839, 121.334283)">
                            <path d="M70.5948483,44.3174274 L5.06346839,44.3174274 C2.45070547,44.3174274 0.312699392,42.1810877 0.312699392,39.5703613 L0.312699392,4.94225755 C0.312699392,2.33153113 2.45070547,0.195191509 5.06346839,0.195191509 L70.5948483,0.195191509 C73.2076112,0.195191509 75.3456173,2.33153113 75.3456173,4.94225755 L75.3456173,39.5703613 C75.3456173,42.1810877 73.2076112,44.3174274 70.5948483,44.3174274" id="Fill-72" fill="#59ACFF"></path>
                            <path d="M23.8797356,17.7769255 L7.44781459,17.7769255 C6.84823404,17.7769255 6.35854103,17.2876142 6.35854103,16.689567 L6.35854103,6.25199151 C6.35854103,5.6528783 6.84823404,5.16356698 7.44781459,5.16356698 L23.8797356,5.16356698 C24.4782492,5.16356698 24.9679422,5.6528783 24.9679422,6.25199151 L24.9679422,16.689567 C24.9679422,17.2876142 24.4782492,17.7769255 23.8797356,17.7769255" id="Fill-74" fill="#FFFFFF"></path>
                            <path d="M17.7114173,25.9408557 L8.18107386,25.9408557 C7.28276991,25.9408557 6.54769696,25.2063557 6.54769696,24.3076858 C6.54769696,23.4100821 7.28276991,22.6755821 8.18107386,22.6755821 L17.7114173,22.6755821 C18.6097213,22.6755821 19.3458611,23.4100821 19.3458611,24.3076858 C19.3458611,25.2063557 18.6097213,25.9408557 17.7114173,25.9408557" id="Fill-76" fill="#99CCFF"></path>
                            <path d="M33.4226681,34.2026481 L8.18160729,34.2026481 C7.28330334,34.2026481 6.54716353,33.4681481 6.54716353,32.5705443 C6.54716353,31.6718745 7.28330334,30.9373745 8.18160729,30.9373745 L33.4226681,30.9373745 C34.3220389,30.9373745 35.0571119,31.6718745 35.0571119,32.5705443 C35.0571119,33.4681481 34.3220389,34.2026481 33.4226681,34.2026481" id="Fill-78" fill="#99CCFF"></path>
                            <path d="M32.9862119,25.9408557 L23.4558684,25.9408557 C22.5575644,25.9408557 21.8224915,25.2063557 21.8224915,24.3076858 C21.8224915,23.4100821 22.5575644,22.6755821 23.4558684,22.6755821 L32.9862119,22.6755821 C33.8845158,22.6755821 34.6206556,23.4100821 34.6206556,24.3076858 C34.6206556,25.2063557 33.8845158,25.9408557 32.9862119,25.9408557" id="Fill-80" fill="#99CCFF"></path>
                            <path d="M48.2614331,25.9408557 L38.7310897,25.9408557 C37.8327857,25.9408557 37.0966459,25.2063557 37.0966459,24.3076858 C37.0966459,23.4100821 37.8327857,22.6755821 38.7310897,22.6755821 L48.2614331,22.6755821 C49.1597371,22.6755821 49.89481,23.4100821 49.89481,24.3076858 C49.89481,25.2063557 49.1597371,25.9408557 48.2614331,25.9408557" id="Fill-82" fill="#99CCFF"></path>
                            <path d="M63.5362277,25.9408557 L54.0058842,25.9408557 C53.1075802,25.9408557 52.3714404,25.2063557 52.3714404,24.3076858 C52.3714404,23.4100821 53.1075802,22.6755821 54.0058842,22.6755821 L63.5362277,22.6755821 C64.4345316,22.6755821 65.1696046,23.4100821 65.1696046,24.3076858 C65.1696046,25.2063557 64.4345316,25.9408557 63.5362277,25.9408557" id="Fill-84" fill="#99CCFF"></path>
                            <path d="M29.8709535,0.195617925 L70.5944216,0.195617925 C73.2082514,0.195617925 75.3462574,2.33195755 75.3462574,4.94268396 L75.3462574,39.5707877 C75.3462574,42.1815142 73.2082514,44.3178538 70.5944216,44.3178538" id="Fill-86" fill="#99CCFF"></path>
                        </g>
                    </g>
                    <ellipse id="Oval" fill="#F9F9FA" fill-rule="nonzero" cx="169" cy="239.5" rx="86" ry="5.5"></ellipse>
                </g>
            </g>
        </g>
    </g>
</svg>