<?xml version="1.0" encoding="UTF-8"?>
<svg width="14px" height="14px" viewBox="0 0 14 14" version="1.1" xmlns="http://www.w3.org/2000/svg" xmlns:xlink="http://www.w3.org/1999/xlink">
    <!-- Generator: Sketch 43.1 (39012) - http://www.bohemiancoding.com/sketch -->
    <title>Group 2</title>
    <desc>Created with Sketch.</desc>
    <defs></defs>
    <g id="Symbols" stroke="none" stroke-width="1" fill="none" fill-rule="evenodd">
        <g id="Window/title" transform="translate(-382.000000, -14.000000)">
            <g id="title" transform="translate(0.000000, 12.000000)">
                <g id="Group-2" transform="translate(383.000000, 3.000000)">
                    <g id="Group-13">
                        <g id="Group-31">
                            <circle id="Oval" stroke="#9B9B9B" cx="6" cy="6" r="6"></circle>
                            <path d="M4,3.96289062 L5.01074219,3.96289062 C5.0546875,3.33789062 5.48925781,2.94238281 6.16308594,2.94238281 C6.83203125,2.94238281 7.26660156,3.33300781 7.26660156,3.87011719 C7.26660156,4.36328125 7.05664062,4.64160156 6.46582031,4.99804688 C5.796875,5.3984375 5.49902344,5.83789062 5.5234375,6.54101562 L5.52832031,6.91210938 L6.5390625,6.91210938 L6.5390625,6.61914062 C6.5390625,6.12597656 6.71972656,5.8671875 7.34960938,5.49609375 C7.99414062,5.11035156 8.375,4.578125 8.375,3.82617188 C8.375,2.76660156 7.50585938,2 6.21679688,2 C4.80078125,2 4.04394531,2.83984375 4,3.96289062 Z M6.09472656,9.21679688 C6.54394531,9.21679688 6.84667969,8.91894531 6.84667969,8.47460938 C6.84667969,8.02050781 6.54394531,7.72265625 6.09472656,7.72265625 C5.64550781,7.72265625 5.33789062,8.02050781 5.33789062,8.47460938 C5.33789062,8.91894531 5.64550781,9.21679688 6.09472656,9.21679688 Z" id="?" fill="#9B9B9B"></path>
                        </g>
                    </g>
                </g>
            </g>
        </g>
    </g>
</svg>