<?xml version="1.0" encoding="UTF-8" standalone="no"?>
<svg width="75px" height="68px" viewBox="0 0 75 68" version="1.1" xmlns="http://www.w3.org/2000/svg" xmlns:xlink="http://www.w3.org/1999/xlink">
    <!-- Generator: Sketch 44.1 (41455) - http://www.bohemiancoding.com/sketch -->
    <title>Group 8</title>
    <desc>Created with Sketch.</desc>
    <defs></defs>
    <g id="Wireframes" stroke="none" stroke-width="1" fill="none" fill-rule="evenodd">
        <g id="Group-8" transform="translate(-9.000000, -13.000000)">
            <g id="pay-per-click" transform="translate(9.000000, 13.000000)" fill-rule="nonzero">
                <polygon id="Shape" fill="#737EB3" points="0.124129747 60.7019718 0.124129747 65.1341831 1.99367089 67.9631268 73.0355222 67.9631268 74.9050633 65.1341831 74.9050633 60.7019718"></polygon>
                <path d="M67.6139241,56.3640986 L7.41526899,56.3640986 C5.82626582,56.3640986 4.61107595,55.1381831 4.61107595,53.5351549 L4.61107595,2.89526761 C4.61107595,1.29223944 5.82626582,0.0663239437 7.41526899,0.0663239437 L67.5204114,0.0663239437 C69.1094146,0.0663239437 70.3246044,1.29223944 70.3246044,2.89526761 L70.3246044,53.5349155 C70.4181171,55.0438451 69.1096519,56.3640986 67.6139241,56.3640986 Z" id="Shape" fill="#737EB3"></path>
                <rect id="Rectangle-path" fill="#FBFBFB" x="9.28481013" y="4.78130986" width="56.3660601" height="46.8678028"></rect>
                <rect id="Rectangle-path" fill="#737EB3" x="30.9712025" y="62.4936761" width="13.0865506" height="1.88604225"></rect>
                <ellipse id="Oval" fill="#F5B947" cx="27.7931962" cy="23.1700423" rx="14.8628165" ry="14.994"></ellipse>
                <path d="M27.7931962,36.0893239 C20.6890823,36.0893239 14.9869462,30.3368592 14.9869462,23.1700423 C14.9869462,16.0032254 20.6890823,10.2507606 27.7931962,10.2507606 C34.8973101,10.2507606 40.5994462,16.0973239 40.5994462,23.1700423 C40.5994462,30.2427606 34.8973101,36.0893239 27.7931962,36.0893239 Z" id="Shape" fill="#F3D479"></path>
                <path d="M27.2321203,33.5431549 L27.2321203,31.6571127 C24.8952532,31.3740986 22.8386867,30.5255352 20.9691456,28.828169 L22.8386867,26.5650141 C24.2409019,27.7909296 25.7363924,28.5453944 27.2321203,28.828169 L27.2321203,23.830169 C25.3625791,23.3587183 23.9603639,22.7929296 23.025712,22.0384648 C22.1843354,21.284 21.7170095,20.1524225 21.7170095,18.737831 C21.7170095,17.3232394 22.1843354,16.0973239 23.2127373,15.1544225 C24.2409019,14.2115211 25.5496044,13.739831 27.2321203,13.645493 L27.2321203,12.3252394 L28.8211234,12.3252394 L28.8211234,13.645493 C30.6906646,13.739831 32.466693,14.3999577 34.0556962,15.5315352 L32.3731804,17.8890282 C31.2515032,17.0402254 30.0363133,16.5687746 28.7276108,16.3800986 L28.7276108,21.1894225 L28.8211234,21.1894225 C30.7841772,21.6608732 32.1861551,22.226662 33.1210443,23.0754648 C34.0556962,23.8299296 34.5232595,24.961507 34.5232595,26.4701972 C34.5232595,27.9788873 33.9624209,29.2050423 32.9342563,30.1479437 C31.9060918,31.0908451 30.5038766,31.5625352 28.7278481,31.6568732 L28.7278481,33.5429155 L27.2321203,33.5429155 L27.2321203,33.5431549 Z M25.4560918,16.9461268 C24.9887658,17.3232394 24.8017405,17.7949296 24.8017405,18.3607183 C24.8017405,18.926507 24.9887658,19.3979577 25.2690665,19.6809718 C25.6428797,20.0580845 26.2037184,20.3410986 27.2321203,20.6238732 L27.2321203,16.191662 C26.4844937,16.380338 25.9236551,16.5690141 25.4560918,16.9461268 Z M30.7844146,28.1680423 C31.2517405,27.7909296 31.5322785,27.3192394 31.5322785,26.6591127 C31.5322785,26.0933239 31.3452532,25.6218732 30.9714399,25.2445211 C30.5976266,24.8674085 29.9432753,24.5843944 28.9148734,24.3016197 L28.9148734,28.9222676 C29.6625,28.828169 30.3168513,28.639493 30.7844146,28.1680423 Z" id="Shape" fill="#F5B947"></path>
                <polygon id="Shape" fill="#0D96FF" points="59.8554589 37.5039155 42.6557753 30.9028873 49.1990506 48.1598028 52.0969937 43.0677042 55.4620253 46.5567746 58.172943 43.822169 54.8076741 40.3328592"></polygon>
            </g>
            <rect id="Rectangle-15" fill-opacity="0" fill="#FFFFFF" x="0" y="0" width="94" height="94"></rect>
        </g>
    </g>
</svg>