<?xml version="1.0" encoding="UTF-8" standalone="no"?>
<svg width="75px" height="61px" viewBox="0 0 75 61" version="1.1" xmlns="http://www.w3.org/2000/svg" xmlns:xlink="http://www.w3.org/1999/xlink">
    <!-- Generator: Sketch 44.1 (41455) - http://www.bohemiancoding.com/sketch -->
    <title>Group 7</title>
    <desc>Created with Sketch.</desc>
    <defs></defs>
    <g id="Wireframes" stroke="none" stroke-width="1" fill="none" fill-rule="evenodd">
        <g id="Group-7" transform="translate(-10.000000, -16.000000)">
            <g id="icon-sync_onboarding" transform="translate(10.000000, 16.000000)" fill-rule="nonzero">
                <g id="Layer_1">
                    <g id="Group">
                        <g>
                            <g id="Layer_6_7_" transform="translate(55.040718, 55.371559)" fill="#535A80">
                                <path d="M1.6257373,2.90632569 L6.45776062,2.90632569 C7.33631032,2.90632569 7.92201012,2.17974426 7.92201012,1.45316284 L7.92201012,1.45316284 C7.92201012,0.581265137 7.18988537,0 6.45776062,0 L1.6257373,0 C0.7471876,0 0.161487803,0.726581421 0.161487803,1.45316284 L0.161487803,1.45316284 C0.161487803,2.17974426 0.7471876,2.90632569 1.6257373,2.90632569 Z" id="Shape"></path>
                            </g>
                            <g>
                                <g>
                                    <g id="Layer_2_7_" fill="#737EB3">
                                        <path d="M49.4916329,0.00605484518 L2.19637424,0.00605484518 C1.31782454,0.00605484518 0.585699797,0.732636267 0.585699797,1.60453397 L0.585699797,7.12655277 L0.585699797,7.41718534 L0.585699797,45.3447355 C0.585699797,46.071317 1.17139959,46.6525821 2.04994929,46.6525821 L49.6380578,46.6525821 C50.5166075,46.6525821 51.1023073,46.071317 51.1023073,45.3447355 L51.1023073,7.41718534 L51.1023073,7.12655277 L51.1023073,1.60453397 C51.1023073,0.732636267 50.3701826,0.00605484518 49.4916329,0.00605484518 Z" id="Shape"></path>
                                    </g>
                                    <g id="Layer_3_8_" transform="translate(2.928499, 2.466283)" fill="#F5F5F7">
                                        <ellipse id="Oval" cx="1.61067444" cy="1.31799482" rx="1.02497465" ry="1.01721399"></ellipse>
                                    </g>
                                    <g id="Layer_4_9_" transform="translate(45.391734, 2.466283)" fill="#F5F5F7">
                                        <ellipse id="Oval" cx="1.75709939" cy="1.31799482" rx="1.02497465" ry="1.01721399"></ellipse>
                                    </g>
                                    <g id="Layer_5_4_" transform="translate(6.720485, 2.466283)" fill="#F5F5F7">
                                        <ellipse id="Oval" cx="1.18646245" cy="1.31799482" rx="1.02497465" ry="1.01721399"></ellipse>
                                    </g>
                                    <g id="Layer_6_6_" transform="translate(11.713996, 2.466283)" fill="#F5F5F7">
                                        <path d="M29.7242647,2.48052509 L1.17139959,2.48052509 C0.585699797,2.48052509 0,1.89925996 0,1.31799482 L0,1.17267854 C0,0.591413399 0.585699797,0.0101482616 1.17139959,0.0101482616 L29.5778398,0.0101482616 C30.1635396,0.0101482616 30.7492394,0.591413399 30.7492394,1.17267854 L30.7492394,1.31799482 C30.8956643,1.89925996 30.3099645,2.48052509 29.7242647,2.48052509 Z" id="Shape"></path>
                                    </g>
                                    <g id="Layer_8" transform="translate(3.791986, 7.417185)" fill="#F5F5F7">
                                        <path d="M0.0150628536,0 L0.0150628536,34.7305919 C0.0150628536,35.4571734 0.600762651,36.0384385 1.3328874,36.0384385 L42.917573,36.0384385 C43.6496977,36.0384385 44.2353975,35.4571734 44.2353975,34.7305919 L44.2353975,0 L0.0150628536,0 Z" id="Shape"></path>
                                    </g>
                                </g>
                                <g id="Layer_2_8_" transform="translate(63.826215, 4.510860)" fill="#C8C8CC">
                                    <path d="M5.57921093,0.581265137 L0.893612549,0.581265137 C0.454337702,0.581265137 0.0150628536,1.01721399 0.0150628536,1.45316284 L0.0150628536,2.17974426 C0.0150628536,2.61569312 0.454337702,3.05164197 0.893612549,3.05164197 L5.57921093,3.05164197 C6.01848577,3.05164197 6.45776062,2.61569312 6.45776062,2.17974426 L6.45776062,1.45316284 C6.31133567,0.871897706 6.01848577,0.581265137 5.57921093,0.581265137 Z" id="Shape"></path>
                                </g>
                                <g id="Layer_3_9_" transform="translate(43.326722, 5.964023)" fill="#C8C8CC">
                                    <path d="M31.350002,3.34227454 L31.350002,51.2966484 C31.350002,53.18576 29.8857525,54.6389229 27.9822282,54.6389229 L3.38283669,54.6389229 C1.47931235,54.6389229 0.0150628536,53.18576 0.0150628536,51.2966484 L0.0150628536,3.34227454 C0.0150628536,1.45316284 1.47931235,0 3.38283669,0 L27.9822282,0 C29.8857525,5.16267151e-15 31.350002,1.45316284 31.350002,3.34227454 Z" id="Shape"></path>
                                </g>
                                <g id="Layer_4_10_" transform="translate(46.701852, 8.870348)" fill="#FAFAFC">
                                    <path d="M24.753523,2.47037683 L24.753523,42.432355 C24.753523,43.3042527 24.0213983,44.0308341 23.1428486,44.0308341 L1.61838102,44.0308341 C0.739831323,44.0308341 0.00770657628,43.3042527 0.00770657628,42.432355 L0.00770657628,2.47037683 C0.00770657628,1.59847913 0.739831323,0.871897706 1.61838102,0.871897706 L23.1428486,0.871897706 C24.0213983,0.726581421 24.753523,1.59847913 24.753523,2.47037683 Z" id="Shape"></path>
                                </g>
                                <g id="Layer_5_5_" transform="translate(46.255221, 8.870348)" fill="#FFFFFF">
                                    <path d="M0.307912752,33.713378 L0.307912752,2.17974426 C0.307912752,1.45316284 1.0400375,0.726581421 1.77216225,0.726581421 L19.0503063,0.726581421 L0.307912752,33.713378 Z" id="Shape"></path>
                                </g>
                                <g id="Layer_7_4_" transform="translate(39.380605, 21.948814)">
                                    <g id="Group">
                                        <path d="M12.3074023,20.1989635 C10.8431528,20.1989635 9.67175323,19.0364332 9.67175323,17.5832704 L9.67175323,15.6941587 L3.52190536,15.6941587 C1.91123092,15.6941587 0.739831323,14.3863121 0.739831323,12.9331493 L0.739831323,8.71897706 C0.739831323,7.12049793 2.05765587,5.95796766 3.52190536,5.95796766 L9.67175323,5.95796766 L9.67175323,3.63290711 C9.67175323,2.17974426 10.8431528,1.01721399 12.3074023,1.01721399 C12.8931021,1.01721399 13.4788019,1.16253027 13.9180768,1.59847913 L22.9964236,8.57366077 C23.5821234,9.00960963 24.0213983,9.88150733 24.0213983,10.6080888 C24.0213983,11.4799865 23.5821234,12.2065679 22.9964236,12.6425167 L13.9180768,19.6176984 C13.4788019,20.0536472 12.8931021,20.1989635 12.3074023,20.1989635 L12.3074023,20.1989635 Z" id="Shape" fill="#0D96FF"></path>
                                        <path d="M12.3074023,1.59847913 C12.7466772,1.59847913 13.185952,1.74379541 13.4788019,2.03442798 L22.5571488,9.00960963 C23.5821234,9.73619105 23.5821234,11.3346702 22.5571488,12.0612516 L13.4788019,19.0364332 C13.185952,19.3270658 12.7466772,19.4723821 12.3074023,19.4723821 C11.2824277,19.4723821 10.403878,18.7458007 10.403878,17.5832704 L10.403878,14.9675773 L3.52190536,14.9675773 C2.35050576,14.9675773 1.47195607,14.0956796 1.47195607,12.9331493 L1.47195607,8.71897706 C1.47195607,7.55644678 2.35050576,6.68454908 3.52190536,6.68454908 L10.403878,6.68454908 L10.403878,3.63290711 C10.403878,2.32506055 11.2824277,1.59847913 12.3074023,1.59847913 L12.3074023,1.59847913 Z M12.3074023,0.145316284 C10.403878,0.145316284 8.93962848,1.59847913 8.93962848,3.48759082 L8.93962848,5.08606995 L3.52190536,5.08606995 C1.61838102,5.08606995 0.00770657628,6.68454908 0.00770657628,8.57366077 L0.00770657628,12.787833 C0.00770657628,14.6769447 1.61838102,16.2754238 3.52190536,16.2754238 L8.93962848,16.2754238 L8.93962848,17.4379541 C8.93962848,19.3270658 10.403878,20.7802287 12.3074023,20.7802287 C13.0395271,20.7802287 13.7716518,20.4895961 14.3573516,20.0536472 L23.4356985,13.0784656 C24.3142482,12.4972004 24.753523,11.4799865 24.753523,10.4627725 C24.753523,9.44555848 24.3142482,8.42834449 23.4356985,7.84707935 L14.3573516,0.871897706 C13.7716518,0.435948853 13.0395271,0.145316284 12.3074023,0.145316284 L12.3074023,0.145316284 Z" id="Shape" fill="#F5F5F7"></path>
                                    </g>
                                </g>
                                <g id="Layer_7_5_" transform="translate(24.892241, 11.776674)">
                                    <g id="Group">
                                        <path d="M12.4461207,20.1989635 C11.8604209,20.1989635 11.2747211,20.0536472 10.8354462,19.6176984 L1.75709939,12.6425167 C1.17139959,12.2065679 0.732124746,11.3346702 0.732124746,10.6080888 C0.732124746,9.73619105 1.17139959,9.00960963 1.75709939,8.57366077 L10.8354462,1.59847913 C11.2747211,1.30784656 11.8604209,1.01721399 12.4461207,1.01721399 C13.9103702,1.01721399 15.0817698,2.17974426 15.0817698,3.63290711 L15.0817698,5.5220188 L21.2316176,5.5220188 C22.8422921,5.5220188 24.0136917,6.82986536 24.0136917,8.2830282 L24.0136917,12.4972004 C24.0136917,14.0956796 22.6958671,15.2582098 21.2316176,15.2582098 L15.0817698,15.2582098 L15.0817698,17.4379541 C15.0817698,18.1645355 14.7889199,18.891117 14.2032201,19.3270658 C13.7639452,19.9083309 13.0318205,20.1989635 12.4461207,20.1989635 L12.4461207,20.1989635 Z" id="Shape" fill="#0D96FF"></path>
                                        <path d="M12.4461207,1.59847913 C13.4710953,1.59847913 14.349645,2.32506055 14.349645,3.48759082 L14.349645,6.10328394 L21.2316176,6.10328394 C22.4030172,6.10328394 23.2815669,6.97518165 23.2815669,8.13771192 L23.2815669,12.3518842 C23.2815669,13.5144144 22.4030172,14.3863121 21.2316176,14.3863121 L14.349645,14.3863121 L14.349645,17.4379541 C14.349645,18.6004844 13.4710953,19.3270658 12.4461207,19.3270658 C12.0068458,19.3270658 11.567571,19.1817495 11.2747211,18.891117 L2.19637424,11.9159353 C1.17139959,11.1893539 1.17139959,9.59087476 2.19637424,8.86429334 L11.2747211,1.8891117 C11.567571,1.74379541 12.0068458,1.59847913 12.4461207,1.59847913 L12.4461207,1.59847913 Z M12.4461207,0.145316284 C11.7139959,0.145316284 10.9818712,0.435948853 10.3961714,0.871897706 L1.31782454,7.84707935 C0.439274848,8.42834449 0,9.44555848 0,10.4627725 C0,11.4799865 0.439274848,12.4972004 1.31782454,13.0784656 L10.3961714,20.0536472 C10.9818712,20.4895961 11.7139959,20.7802287 12.4461207,20.7802287 C14.349645,20.7802287 15.8138945,19.3270658 15.8138945,17.4379541 L15.8138945,15.9847913 L21.2316176,15.9847913 C23.135142,15.9847913 24.7458164,14.3863121 24.7458164,12.4972004 L24.7458164,8.2830282 C24.7458164,6.39391651 23.135142,4.79543738 21.2316176,4.79543738 L15.8138945,4.79543738 L15.8138945,3.63290711 C15.8138945,1.59847913 14.2032201,0.145316284 12.4461207,0.145316284 L12.4461207,0.145316284 Z" id="Shape" fill="#F5F5F7"></path>
                                    </g>
                                </g>
                            </g>
                        </g>
                        <g id="Layer_6_53_" transform="translate(55.040718, 55.220188)" fill="#E1E1E6">
                            <path d="M1.6257373,2.91238053 L6.16491072,2.91238053 C6.89703547,2.91238053 7.62916022,2.33111539 7.62916022,1.45921769 L7.62916022,1.45921769 C7.62916022,0.732636267 7.04346042,0.00605484518 6.16491072,0.00605484518 L1.6257373,0.00605484518 C0.893612549,0.00605484518 0.161487803,0.587319982 0.161487803,1.45921769 L0.161487803,1.45921769 C0.161487803,2.33111539 0.7471876,2.91238053 1.6257373,2.91238053 Z" id="Shape"></path>
                        </g>
                    </g>
                </g>
            </g>
            <rect id="Rectangle-15" fill-opacity="0" fill="#FFFFFF" x="0" y="0" width="94" height="94"></rect>
        </g>
    </g>
</svg>