<?xml version="1.0" encoding="UTF-8"?>
<svg width="504px" height="130px" viewBox="0 0 504 130" version="1.1" xmlns="http://www.w3.org/2000/svg" xmlns:xlink="http://www.w3.org/1999/xlink">
    <!-- Generator: Sketch 43.1 (39012) - http://www.bohemiancoding.com/sketch -->
    <title>paypal</title>
    <desc>Created with Sketch.</desc>
    <defs></defs>
    <g id="Symbols" stroke="none" stroke-width="1" fill="none" fill-rule="evenodd">
        <g id="paypal" fill-rule="nonzero">
            <path d="M389.6,34.2 L362.4,34.2 C360.8,34.2 359.2,35.8 358.4,37.4 L347.2,107.8 C347.2,109.4 348,110.2 349.6,110.2 L364,110.2 C365.6,110.2 366.4,109.4 366.4,107.8 L369.6,87.8 C369.6,86.2 371.2,84.6 373.6,84.6 L382.4,84.6 C400.8,84.6 411.2,75.8 413.6,58.2 C415.2,51 413.6,44.6 410.4,40.6 C405.6,36.6 398.4,34.2 389.6,34.2 M392.8,60.6 C391.2,70.2 384,70.2 376.8,70.2 L372,70.2 L375.2,51.8 C375.2,51 376,50.2 377.6,50.2 L379.2,50.2 C384,50.2 388.8,50.2 391.2,53.4 C392.8,54.2 392.8,56.6 392.8,60.6" id="Shape" fill="#139AD6"></path>
            <g id="Group" transform="translate(151.000000, 34.000000)" fill="#263B80">
                <path d="M42.6,0.2 L15.4,0.2 C13.8,0.2 12.2,1.8 11.4,3.4 L0.2,73.8 C0.2,75.4 1,76.2 2.6,76.2 L15.4,76.2 C17,76.2 18.6,74.6 19.4,73 L22.6,53.8 C22.6,52.2 24.2,50.6 26.6,50.6 L35.4,50.6 C53.8,50.6 64.2,41.8 66.6,24.2 C68.2,17 66.6,10.6 63.4,6.6 C58.6,2.6 52.2,0.2 42.6,0.2 M45.8,26.6 C44.2,36.2 37,36.2 29.8,36.2 L25.8,36.2 L29,17.8 C29,17 29.8,16.2 31.4,16.2 L33,16.2 C37.8,16.2 42.6,16.2 45,19.4 C45.8,20.2 46.6,22.6 45.8,26.6" id="Shape"></path>
                <path d="M125,25.8 L112.2,25.8 C111.4,25.8 109.8,26.6 109.8,27.4 L109,31.4 L108.2,29.8 C105,25.8 99.4,24.2 93,24.2 C78.6,24.2 65.8,35.4 63.4,50.6 C61.8,58.6 64.2,65.8 68.2,70.6 C72.2,75.4 77.8,77 85,77 C97,77 103.4,69.8 103.4,69.8 L102.6,73.8 C102.6,75.4 103.4,76.2 105,76.2 L117,76.2 C118.6,76.2 120.2,74.6 121,73 L128.2,28.2 C127.4,27.4 125.8,25.8 125,25.8 M106.6,51.4 C105,58.6 99.4,64.2 91.4,64.2 C87.4,64.2 84.2,62.6 82.6,61 C81,58.6 80.2,55.4 80.2,51.4 C81,44.2 87.4,38.6 94.6,38.6 C98.6,38.6 101,40.2 103.4,41.8 C105.8,44.2 106.6,48.2 106.6,51.4" id="Shape"></path>
            </g>
            <path d="M471.2,59.8 L458.4,59.8 C457.6,59.8 456,60.6 456,61.4 L455.2,65.4 L454.4,63.8 C451.2,59.8 445.6,58.2 439.2,58.2 C424.8,58.2 412,69.4 409.6,84.6 C408,92.6 410.4,99.8 414.4,104.6 C418.4,109.4 424,111 431.2,111 C443.2,111 449.6,103.8 449.6,103.8 L448.8,107.8 C448.8,109.4 449.6,110.2 451.2,110.2 L463.2,110.2 C464.8,110.2 466.4,108.6 467.2,107 L474.4,62.2 C473.6,61.4 472.8,59.8 471.2,59.8 M452.8,85.4 C451.2,92.6 445.6,98.2 437.6,98.2 C433.6,98.2 430.4,96.6 428.8,95 C427.2,92.6 426.4,89.4 426.4,85.4 C427.2,78.2 433.6,72.6 440.8,72.6 C444.8,72.6 447.2,74.2 449.6,75.8 C452.8,78.2 453.6,82.2 452.8,85.4" id="Shape" fill="#139AD6"></path>
            <path d="M345.6,59.8 L332,59.8 C330.4,59.8 329.6,60.6 328.8,61.4 L311.2,88.6 L303.2,63 C302.4,61.4 301.6,60.6 299.2,60.6 L286.4,60.6 C284.8,60.6 284,62.2 284,63.8 L298.4,106.2 L284.8,125.4 C284,127 284.8,129.4 286.4,129.4 L299.2,129.4 C300.8,129.4 301.6,128.6 302.4,127.8 L346.4,64.6 C348.8,62.2 347.2,59.8 345.6,59.8" id="Shape" fill="#263B80"></path>
            <path d="M486.4,36.6 L475.2,108.6 C475.2,110.2 476,111 477.6,111 L488.8,111 C490.4,111 492,109.4 492.8,107.8 L504,37.4 C504,35.8 503.2,35 501.6,35 L488.8,35 C488,34.2 487.2,35 486.4,36.6" id="Shape" fill="#139AD6"></path>
            <path d="M92,10.2 C86.4,3.8 76,0.6 61.6,0.6 L21.6,0.6 C19.2,0.6 16.8,3 16,5.4 L0,110.2 C0,112.6 1.6,114.2 3.2,114.2 L28,114.2 L34.4,75 L34.4,76.6 C35.2,74.2 37.6,71.8 40,71.8 L52,71.8 C75.2,71.8 92.8,62.2 98.4,35.8 L98.4,33.4 C97.6,33.4 97.6,33.4 98.4,33.4 C99.2,23 97.6,16.6 92,10.2" id="Shape" fill="#263B80"></path>
            <path d="M97.6,33.4 L97.6,33.4 L97.6,35.8 C92,63 74.4,71.8 51.2,71.8 L39.2,71.8 C36.8,71.8 34.4,74.2 33.6,76.6 L25.6,125.4 C25.6,127 26.4,128.6 28.8,128.6 L49.6,128.6 C52,128.6 54.4,127 54.4,124.6 L54.4,123.8 L58.4,99 L58.4,97.4 C58.4,95 60.8,93.4 63.2,93.4 L66.4,93.4 C86.4,93.4 102.4,85.4 106.4,61.4 C108,51.8 107.2,43 102.4,37.4 C101.6,35.8 100,34.2 97.6,33.4" id="Shape" fill="#139AD6"></path>
            <path d="M92,31 C91.2,31 90.4,30.2 89.6,30.2 C88.8,30.2 88,30.2 87.2,29.4 C84,28.6 80.8,28.6 76.8,28.6 L45.6,28.6 C44.8,28.6 44,28.6 43.2,29.4 C41.6,30.2 40.8,31.8 40.8,33.4 L34.4,75 L34.4,76.6 C35.2,74.2 37.6,71.8 40,71.8 L52,71.8 C75.2,71.8 92.8,62.2 98.4,35.8 C98.4,35 98.4,34.2 99.2,33.4 C97.6,32.6 96.8,31.8 95.2,31.8 C92.8,31 92.8,31 92,31" id="Shape" fill="#232C65"></path>
        </g>
    </g>
</svg>