<?xml version="1.0" encoding="UTF-8"?>
<svg width="52px" height="52px" viewBox="0 0 52 52" version="1.1" xmlns="http://www.w3.org/2000/svg" xmlns:xlink="http://www.w3.org/1999/xlink">
    <!-- Generator: Sketch 43.1 (39012) - http://www.bohemiancoding.com/sketch -->
    <title>spin</title>
    <desc>Created with Sketch.</desc>
    <defs></defs>
    <g id="Wireframes" stroke="none" stroke-width="1" fill="none" fill-rule="evenodd">
        <g id="4.10" transform="translate(-476.000000, -335.000000)" fill-rule="nonzero" fill="#0093E0">
            <g id="spin" transform="translate(476.000000, 335.000000)">
                <path d="M27.73576,50.5 L27.61304,50.5 C21.23264,50.47 15.22768,48.057 10.70472,43.707 C10.29808,43.316 10.29808,42.684 10.70472,42.293 C11.11136,41.902 11.76864,41.902 12.17528,42.293 C16.30928,46.268 21.79528,48.472 27.62344,48.5 C33.47656,48.538 38.94592,46.363 43.06224,42.405 C51.14408,34.634 51.52784,22.035 43.93584,13.723 C43.55728,13.308 43.59992,12.676 44.03152,12.312 C44.46312,11.948 45.1204,11.99 45.49896,12.403 C53.81272,21.506 53.3884,35.304 44.5328,43.819 C40.04832,48.13 34.08808,50.5 27.73576,50.5 Z" id="Shape"></path>
                <path d="M20.8,44 L11.44,44 C10.86592,44 10.4,43.553 10.4,43 C10.4,42.447 10.86592,42 11.44,42 L20.8,42 C21.37408,42 21.84,42.447 21.84,43 C21.84,43.553 21.37408,44 20.8,44 Z" id="Shape"></path>
                <path d="M11.44,52 C10.86592,52 10.4,51.553 10.4,51 L10.4,43 C10.4,42.447 10.86592,42 11.44,42 C12.01408,42 12.48,42.447 12.48,43 L12.48,51 C12.48,51.553 12.01408,52 11.44,52 Z" id="Shape"></path>
                <path d="M7.27688,39.93 C6.98776,39.93 6.70072,39.815 6.4948,39.589 C-1.81168,30.488 -1.38424,16.691 7.4672,8.181 C11.95064,3.87 17.91088,1.5 24.26424,1.5 L24.38696,1.5 C30.76736,1.53 36.77232,3.943 41.29528,8.293 C41.70192,8.684 41.70192,9.316 41.29528,9.707 C40.88864,10.098 40.23136,10.098 39.82472,9.707 C35.69072,5.732 30.20472,3.528 24.37656,3.5 C18.53072,3.506 13.05408,5.637 8.93776,9.595 C0.85904,17.364 0.47216,29.959 8.05792,38.271 C8.43648,38.686 8.39384,39.318 7.96224,39.682 C7.76568,39.848 7.52024,39.93 7.27688,39.93 Z" id="Shape" opacity="0.5"></path>
                <path d="M40.56,10 L31.2,10 C30.62592,10 30.16,9.553 30.16,9 C30.16,8.447 30.62592,8 31.2,8 L40.56,8 C41.13408,8 41.6,8.447 41.6,9 C41.6,9.553 41.13408,10 40.56,10 Z" id="Shape" opacity="0.5"></path>
                <path d="M40.56,10 C39.98592,10 39.52,9.553 39.52,9 L39.52,1 C39.52,0.447 39.98592,0 40.56,0 C41.13408,0 41.6,0.447 41.6,1 L41.6,9 C41.6,9.553 41.13408,10 40.56,10 Z" id="Shape" opacity="0.5"></path>
            </g>
        </g>
    </g>
</svg>