<?xml version="1.0" encoding="UTF-8"?>
<svg width="504px" height="154px" viewBox="0 0 504 154" version="1.1" xmlns="http://www.w3.org/2000/svg" xmlns:xlink="http://www.w3.org/1999/xlink">
    <!-- Generator: Sketch 43.1 (39012) - http://www.bohemiancoding.com/sketch -->
    <title>visa</title>
    <desc>Created with Sketch.</desc>
    <defs></defs>
    <g id="Symbols" stroke="none" stroke-width="1" fill="none" fill-rule="evenodd">
        <g id="visa" fill-rule="nonzero">
            <polygon id="Shape" fill="#3C58BF" points="184.8 149.4 210.4 5.4 250.4 5.4 225.6 149.4"></polygon>
            <polygon id="Shape" fill="#293688" points="184.8 149.4 217.6 5.4 250.4 5.4 225.6 149.4"></polygon>
            <path d="M370.4,7 C362.4,3.8 349.6,0.6 333.6,0.6 C293.6,0.6 264.8,20.6 264.8,49.4 C264.8,71 284.8,82.2 300.8,89.4 C316.8,96.6 321.6,101.4 321.6,107.8 C321.6,117.4 308.8,122.2 297.6,122.2 C281.6,122.2 272.8,119.8 259.2,114.2 L253.6,111.8 L248,144.6 C257.6,148.6 275.2,152.6 293.6,152.6 C336,152.6 364,132.6 364,102.2 C364,85.4 353.6,72.6 329.6,62.2 C315.2,55 306.4,51 306.4,43.8 C306.4,37.4 313.6,31 329.6,31 C343.2,31 352.8,33.4 360,36.6 L364,38.2 L370.4,7 L370.4,7 Z" id="Shape" fill="#3C58BF"></path>
            <path d="M370.4,7 C362.4,3.8 349.6,0.6 333.6,0.6 C293.6,0.6 272,20.6 272,49.4 C272,71 284.8,82.2 300.8,89.4 C316.8,96.6 321.6,101.4 321.6,107.8 C321.6,117.4 308.8,122.2 297.6,122.2 C281.6,122.2 272.8,119.8 259.2,114.2 L253.6,111.8 L248,144.6 C257.6,148.6 275.2,152.6 293.6,152.6 C336,152.6 364,132.6 364,102.2 C364,85.4 353.6,72.6 329.6,62.2 C315.2,55 306.4,51 306.4,43.8 C306.4,37.4 313.6,31 329.6,31 C343.2,31 352.8,33.4 360,36.6 L364,38.2 L370.4,7 L370.4,7 Z" id="Shape" fill="#293688"></path>
            <path d="M439.2,5.4 C429.6,5.4 422.4,6.2 418.4,15.8 L358.4,149.4 L401.6,149.4 L409.6,125.4 L460.8,125.4 L465.6,149.4 L504,149.4 L470.4,5.4 L439.2,5.4 L439.2,5.4 Z M420.8,101.4 C423.2,94.2 436.8,59 436.8,59 C436.8,59 440,50.2 442.4,44.6 L444.8,58.2 C444.8,58.2 452.8,94.2 454.4,102.2 L420.8,102.2 L420.8,101.4 Z" id="Shape" fill="#3C58BF"></path>
            <path d="M448.8,5.4 C439.2,5.4 432,6.2 428,15.8 L358.4,149.4 L401.6,149.4 L409.6,125.4 L460.8,125.4 L465.6,149.4 L504,149.4 L470.4,5.4 L448.8,5.4 L448.8,5.4 Z M420.8,101.4 C424,93.4 436.8,59 436.8,59 C436.8,59 440,50.2 442.4,44.6 L444.8,58.2 C444.8,58.2 452.8,94.2 454.4,102.2 L420.8,102.2 L420.8,101.4 Z" id="Shape" fill="#293688"></path>
            <path d="M111.2,106.2 L107.2,85.4 C100,61.4 76.8,35 51.2,22.2 L87.2,150.2 L130.4,150.2 L195.2,6.2 L152,6.2 L111.2,106.2 Z" id="Shape" fill="#3C58BF"></path>
            <path d="M111.2,106.2 L107.2,85.4 C100,61.4 76.8,35 51.2,22.2 L87.2,150.2 L130.4,150.2 L195.2,6.2 L160,6.2 L111.2,106.2 Z" id="Shape" fill="#293688"></path>
            <path d="M0,5.4 L7.2,7 C58.4,19 93.6,49.4 107.2,85.4 L92.8,17.4 C90.4,7.8 83.2,5.4 74.4,5.4 L0,5.4 L0,5.4 Z" id="Shape" fill="#FFBC00"></path>
            <path d="M0,5.4 L0,5.4 C51.2,17.4 93.6,48.6 107.2,84.6 L93.6,27.8 C91.2,18.2 83.2,12.6 74.4,12.6 L0,5.4 Z" id="Shape" fill="#F7981D"></path>
            <path d="M0,5.4 L0,5.4 C51.2,17.4 93.6,48.6 107.2,84.6 L97.6,53.4 C95.2,43.8 92,34.2 80.8,30.2 L0,5.4 Z" id="Shape" fill="#ED7C00"></path>
            <g id="Group" transform="translate(52.000000, 21.000000)" fill="#051244">
                <path d="M99.2,80.4 L72,53.2 L59.2,83.6 L56,63.6 C48.8,39.6 25.6,13.2 0,0.4 L36,128.4 L79.2,128.4 L99.2,80.4 Z" id="Shape"></path>
                <polygon id="Shape" points="173.6 128.4 139.2 93.2 132.8 128.4"></polygon>
                <path d="M265.6,78.8 L265.6,78.8 C268.8,82 270.4,84.4 269.6,87.6 C269.6,97.2 256.8,102 245.6,102 C229.6,102 220.8,99.6 207.2,94 L201.6,91.6 L196,124.4 C205.6,128.4 223.2,132.4 241.6,132.4 C267.2,132.4 288,125.2 300,112.4 L265.6,78.8 Z" id="Shape"></path>
                <path d="M312,128.4 L349.6,128.4 L357.6,104.4 L408.8,104.4 L413.6,128.4 L452,128.4 L438.4,70 L390.4,23.6 L392.8,36.4 C392.8,36.4 400.8,72.4 402.4,80.4 L368.8,80.4 C372,72.4 384.8,38 384.8,38 C384.8,38 388,29.2 390.4,23.6" id="Shape"></path>
            </g>
        </g>
    </g>
</svg>